#!OML:ASF E:\emotionWalksFemale\Project 1\Capture day 1\Session 1\Female1.ASF
:FULLY-SPECIFIED
:DEGREES
1039
root 9.27501 15.258 -22.64 180.75 2.65537 -175.924
lowerback 2.48805 0.361104 5.1904
upperback -1.24399 1.12207 4.71653
thorax -2.6928 0.6529 1.89675
lowerneck -2.28003 -9.85382 -9.27107
upperneck 34.5633 -12.6279 15.8351
head 13.868 -3.10577 6.96493
rclavicle -9.93923e-015 1.11319e-014
rhumerus -34.453 0.533351 -77.6361
rradius 27.8123
rwrist 24.7431
rhand -6.68174 -52.5486
rfingers 7.12502
rthumb 19.1769 -81.6232
lclavicle -9.93923e-015 1.11319e-014
lhumerus -42.7318 12.9341 79.1014
lradius 36.0279
lwrist -16.0602
lhand -3.28325 -34.3111
lfingers 7.12502
lthumb 22.4421 -5.59497
rfemur 22.8422 8.0238 33.9816
rtibia 2.99981
rfoot -8.42092 -14.6889
rtoes -4.72062
lfemur -27.6566 -25.2602 -13.7143
ltibia 22.5873
lfoot -28.3912 30.1635
ltoes 23.2754
1040
root 9.24926 15.2728 -22.7658 180.841 2.85922 -176.142
lowerback 2.37588 0.395396 5.07839
upperback -1.27175 1.13416 4.57444
thorax -2.65581 0.652134 1.81264
lowerneck -2.48946 -9.86763 -9.1526
upperneck 34.5819 -12.6906 15.8488
head 13.9264 -3.11216 6.93741
rclavicle 1.9133e-015 2.06736e-014
rhumerus -34.5305 0.620911 -77.5279
rradius 27.7743
rwrist 24.7051
rhand -7.01155 -52.2225
rfingers 7.12502
rthumb 18.8597 -81.3282
lclavicle 1.9133e-015 2.06736e-014
lhumerus -42.9085 13.0647 78.7959
lradius 35.8475
lwrist -16.3143
lhand -3.27037 -34.2036
lfingers 7.12502
lthumb 22.4545 -5.48896
rfemur 22.6701 7.91637 33.4704
rtibia 3.98819
rfoot -8.21783 -14.0852
rtoes -5.82269
lfemur -27.3612 -25.7613 -14.0094
ltibia 22.5365
lfoot -28.1862 30.7349
ltoes 27.3596
1041
root 9.21997 15.2881 -22.8909 180.908 3.03135 -176.418
lowerback 2.08711 0.432824 4.95762
upperback -1.22282 1.12807 4.41432
thorax -2.43955 0.6446 1.71803
lowerneck -2.48524 -9.85943 -9.07138
upperneck 34.3766 -12.7431 15.9358
head 13.8394 -3.1376 6.93044
rclavicle 7.00716e-015 2.8625e-014
rhumerus -34.6345 0.636039 -77.4029
rradius 27.9151
rwrist 24.4699
rhand -7.11347 -51.8607
rfingers 7.12502
rthumb 18.7617 -80.9759
lclavicle 7.00716e-015 2.8625e-014
lhumerus -42.8699 13.2299 78.5226
lradius 35.4933
lwrist -16.5752
lhand -3.25902 -34.1706
lfingers 7.12502
lthumb 22.4654 -5.45724
rfemur 22.3365 7.77935 32.8653
rtibia 5.28005
rfoot -7.97623 -13.445
rtoes -6.629
lfemur -26.8681 -25.4361 -14.6888
ltibia 22.436
lfoot -26.7065 31.0449
ltoes 28.1975
1042
root 9.19214 15.3054 -23.0206 180.988 3.25769 -176.63
lowerback 2.04101 0.492566 4.88273
upperback -1.41934 1.20192 4.29992
thorax -2.6146 0.673308 1.63834
lowerneck -2.38715 -9.94514 -9.15434
upperneck 34.5798 -12.8238 15.9308
head 13.9367 -3.15822 6.96017
rclavicle -8.94531e-016 -7.63333e-014
rhumerus -35.1601 0.650007 -77.2358
rradius 28.0507
rwrist 24.2248
rhand -7.59617 -51.6205
rfingers 7.12502
rthumb 18.2974 -80.7799
lclavicle -8.94531e-016 -7.63333e-014
lhumerus -43.2396 13.2559 78.2717
lradius 35.1918
lwrist -16.8148
lhand -3.34679 -34.072
lfingers 7.12502
lthumb 22.3811 -5.34851
rfemur 21.9865 7.69717 32.3192
rtibia 6.59962
rfoot -7.74454 -12.8438
rtoes -6.62846
lfemur -26.2684 -24.8128 -15.3873
ltibia 22.3458
lfoot -25.5594 30.6368
ltoes 29.4205
1043
root 9.16638 15.323 -23.1583 181.005 3.47388 -176.888
lowerback 1.63783 0.527792 4.72398
upperback -1.35227 1.19151 4.20256
thorax -2.31752 0.668944 1.63217
lowerneck -2.54804 -9.97804 -9.12981
upperneck 34.7812 -12.8401 15.7707
head 14.0536 -3.16318 6.89862
rclavicle -7.42958e-015 -3.33958e-014
rhumerus -35.2662 0.686437 -77.1011
rradius 28.115
rwrist 23.9067
rhand -8.07025 -51.4403
rfingers 7.12502
rthumb 17.8412 -80.6419
lclavicle -7.42958e-015 -3.33958e-014
lhumerus -43.2115 13.3081 78.1484
lradius 34.6984
lwrist -16.9326
lhand -3.60666 -34.0999
lfingers 7.12502
lthumb 22.1316 -5.34657
rfemur 21.7308 7.58728 31.7466
rtibia 7.98086
rfoot -7.51355 -12.3217
rtoes -8.09306
lfemur -25.6241 -24.4952 -16.0874
ltibia 22.2859
lfoot -25.0726 29.9501
ltoes 32.2059
1044
root 9.13965 15.3407 -23.2905 180.909 3.62823 -177.064
lowerback 1.50571 0.531432 4.69801
upperback -1.29597 1.16854 4.10774
thorax -2.18281 0.654651 1.5516
lowerneck -2.53254 -9.94186 -9.02779
upperneck 34.7616 -12.7792 15.6361
head 14.0059 -3.14583 6.82386
rclavicle 5.96354e-016 -6.04305e-014
rhumerus -35.3866 0.624753 -76.8696
rradius 28.0032
rwrist 23.8219
rhand -9.07906 -50.518
rfingers 7.12502
rthumb 16.8703 -79.8052
lclavicle 5.96354e-016 -6.04305e-014
lhumerus -43.1998 13.3715 77.9782
lradius 34.3416
lwrist -17.1209
lhand -3.62984 -34.114
lfingers 7.12502
lthumb 22.1094 -5.35809
rfemur 21.3946 7.39126 31.2647
rtibia 9.69464
rfoot -7.24793 -11.7434
rtoes -10.7982
lfemur -24.9184 -24.2169 -16.7076
ltibia 22.1602
lfoot -23.9681 29.3461
ltoes 33.3305
1045
root 9.11236 15.3594 -23.4131 180.773 3.7311 -177.246
lowerback 1.8123 0.523026 4.63839
upperback -1.4189 1.1776 4.0286
thorax -2.48147 0.650935 1.49822
lowerneck -2.45132 -9.92622 -9.00637
upperneck 34.7368 -12.7492 15.5892
head 13.9633 -3.13834 6.80217
rclavicle -7.57867e-015 -6.52014e-014
rhumerus -35.6911 0.43861 -76.5333
rradius 27.7281
rwrist 23.9668
rhand -10.6955 -49.1285
rfingers 7.12502
rthumb 15.3138 -78.5415
lclavicle -7.57867e-015 -6.52014e-014
lhumerus -43.4991 13.6114 77.7026
lradius 34.2584
lwrist -17.649
lhand -3.2348 -33.7918
lfingers 7.12502
lthumb 22.4886 -5.08131
rfemur 20.8964 7.14445 30.7381
rtibia 11.6496
rfoot -6.94586 -11.0432
rtoes -12.9879
lfemur -24.1178 -23.4788 -17.4569
ltibia 21.922
lfoot -21.6944 28.8084
ltoes 31.7774
1046
root 9.08612 15.38 -23.536 180.722 3.78288 -177.63
lowerback 1.97887 0.50586 4.3025
upperback -1.60077 1.15324 3.93498
thorax -2.76632 0.633807 1.58712
lowerneck -2.2879 -9.90354 -9.12742
upperneck 34.6702 -12.7143 15.6371
head 13.9037 -3.14169 6.84789
rclavicle -7.20594e-015 -4.6118e-014
rhumerus -36.1406 0.449341 -76.3479
rradius 27.907
rwrist 23.6333
rhand -11.3884 -48.7286
rfingers 7.12502
rthumb 14.6464 -78.1913
lclavicle -7.20594e-015 -4.6118e-014
lhumerus -43.8086 14.083 77.3638
lradius 33.9294
lwrist -18.5044
lhand -2.8727 -33.4795
lfingers 7.12502
lthumb 22.8361 -4.81148
rfemur 20.1648 6.6682 29.8374
rtibia 13.698
rfoot -6.55459 -10.0267
rtoes -14.251
lfemur -23.3418 -22.5345 -18.4576
ltibia 21.6273
lfoot -19.4587 28.2937
ltoes 29.738
1047
root 9.05982 15.4024 -23.6619 180.76 3.89171 -178.048
lowerback 1.60121 0.55973 3.9968
upperback -1.52804 1.16406 3.80419
thorax -2.47923 0.639964 1.62735
lowerneck -2.34442 -9.89932 -9.25408
upperneck 34.5069 -12.7662 15.8032
head 13.8763 -3.18068 6.91869
rclavicle -9.49197e-015 -3.49861e-014
rhumerus -36.236 0.493306 -76.3396
rradius 28.4212
rwrist 22.8018
rhand -10.121 -49.8862
rfingers 7.12502
rthumb 15.8672 -79.256
lclavicle -9.49197e-015 -3.49861e-014
lhumerus -43.5645 14.4831 77.2066
lradius 33.3946
lwrist -19.3921
lhand -3.05542 -33.5844
lfingers 7.12502
lthumb 22.6608 -4.89483
rfemur 19.2075 6.2132 28.8444
rtibia 15.9207
rfoot -6.01877 -8.93814
rtoes -14.6229
lfemur -22.6279 -21.8821 -19.3615
ltibia 21.25
lfoot -18.086 27.9318
ltoes 27.747
1048
root 9.03079 15.4208 -23.7886 180.723 4.07868 -178.335
lowerback 1.24883 0.665094 3.90939
upperback -1.38331 1.25452 3.68813
thorax -2.12955 0.684497 1.55921
lowerneck -2.5151 -9.95161 -9.26923
upperneck 34.4624 -12.8718 15.8317
head 13.918 -3.22973 6.90985
rclavicle -5.11871e-015 2.22639e-014
rhumerus -36.2383 0.269901 -76.13
rradius 28.559
rwrist 22.4317
rhand -7.93676 -51.3785
rfingers 7.12502
rthumb 17.9697 -80.5684
lclavicle -5.11871e-015 2.22639e-014
lhumerus -43.1855 14.6406 77.2345
lradius 32.8933
lwrist -20.1691
lhand -3.32324 -33.765
lfingers 7.12502
lthumb 22.4037 -5.04425
rfemur 18.32 5.75286 27.954
rtibia 18.2464
rfoot -5.53312 -7.75795
rtoes -14.4782
lfemur -21.7821 -21.4418 -20.0841
ltibia 20.7967
lfoot -17.5779 27.5833
ltoes 26.8892
1049
root 9.00111 15.4366 -23.9127 180.588 4.25729 -178.564
lowerback 1.2834 0.712996 3.81973
upperback -1.39095 1.30987 3.61775
thorax -2.15652 0.709237 1.53449
lowerneck -2.42777 -9.93454 -9.23425
upperneck 34.3784 -12.8508 15.8227
head 13.8505 -3.22536 6.89518
rclavicle 6.5102e-015 1.27222e-014
rhumerus -36.4878 0.382405 -76.0093
rradius 28.7586
rwrist 21.764
rhand -6.29474 -52.2561
rfingers 7.12502
rthumb 19.549 -81.2933
lclavicle 6.5102e-015 1.27222e-014
lhumerus -43.0888 14.7547 77.2421
lradius 32.5638
lwrist -20.7612
lhand -2.89335 -33.4207
lfingers 7.12502
lthumb 22.8163 -4.75017
rfemur 17.5245 5.3367 27.1227
rtibia 20.5129
rfoot -4.72237 -6.50064
rtoes -13.5337
lfemur -20.8375 -20.9914 -20.7682
ltibia 20.3756
lfoot -17.7489 27.0795
ltoes 28.2395
1050
root 8.97442 15.4537 -24.0362 180.394 4.3935 -178.829
lowerback 1.63895 0.717451 3.62413
upperback -1.54355 1.33141 3.53682
thorax -2.51573 0.714288 1.553
lowerneck -2.34358 -9.90206 -9.22386
upperneck 34.3739 -12.7985 15.8248
head 13.8187 -3.19833 6.90413
rclavicle 9.39258e-015 2.38542e-014
rhumerus -36.9585 0.402191 -75.891
rradius 28.9809
rwrist 21.4429
rhand -6.02754 -52.2352
rfingers 7.12502
rthumb 19.8059 -81.2461
lclavicle 9.39258e-015 2.38542e-014
lhumerus -43.2986 14.7698 77.1958
lradius 32.5955
lwrist -21.0544
lhand -2.10499 -32.9644
lfingers 7.12502
lthumb 23.5727 -4.38913
rfemur 16.7216 4.96873 26.2938
rtibia 22.7578
rfoot -3.18866 -5.20568
rtoes -15.1224
lfemur -19.8376 -20.4678 -21.5197
ltibia 19.9703
lfoot -17.6593 26.5746
ltoes 28.5929
1051
root 8.94818 15.4696 -24.1589 180.218 4.49651 -179.162
lowerback 1.85463 0.750442 3.41786
upperback -1.63798 1.3731 3.42294
thorax -2.73571 0.730254 1.54529
lowerneck -2.42351 -9.93313 -9.26355
upperneck 34.4958 -12.8277 15.8044
head 13.9014 -3.20162 6.911
rclavicle -9.59136e-015 2.06736e-014
rhumerus -37.3794 0.17539 -75.6809
rradius 29.2116
rwrist 21.3905
rhand -5.99497 -52.1218
rfingers 7.12502
rthumb 19.8372 -81.1294
lclavicle -9.59136e-015 2.06736e-014
lhumerus -43.3758 14.5392 77.3234
lradius 32.6722
lwrist -21.287
lhand -1.52662 -32.6476
lfingers 7.12502
lthumb 24.1274 -4.14475
rfemur 15.8657 4.53592 25.3777
rtibia 25.0757
rfoot -1.63759 -3.77513
rtoes -19.5336
lfemur -18.8373 -19.9337 -22.3389
ltibia 19.47
lfoot -17.1386 26.2748
ltoes 27.8382
1052
root 8.92182 15.489 -24.2729 180.158 4.63019 -179.524
lowerback 1.95154 0.782128 3.12451
upperback -1.70288 1.40045 3.31982
thorax -2.86047 0.742285 1.5999
lowerneck -2.69335 -10.0025 -9.34089
upperneck 34.7679 -12.9142 15.8026
head 14.1159 -3.21683 6.93766
rclavicle -2.18663e-015 -3.02153e-014
rhumerus -37.6275 0.224674 -75.59
rradius 29.4876
rwrist 20.9692
rhand -5.83712 -52.1866
rfingers 7.12502
rthumb 19.9889 -81.1785
lclavicle -2.18663e-015 -3.02153e-014
lhumerus -43.335 14.2163 77.5634
lradius 32.7708
lwrist -21.4908
lhand -1.16951 -32.3266
lfingers 7.12502
lthumb 24.4697 -3.86959
rfemur 14.8229 4.22723 24.4487
rtibia 27.4228
rfoot -0.251328 -2.5748
rtoes -19.9286
lfemur -18.0067 -19.59 -23.071
ltibia 18.9151
lfoot -16.6632 26.2106
ltoes 27.6593
